<?xml version="1.0" encoding="UTF-8"?>
<svg id="icon" xmlns="http://www.w3.org/2000/svg" version="1.1" viewBox="0 0 49 49">
  <!-- Generator: Adobe Illustrator 30.2.1, SVG Export Plug-In . SVG Version: 2.1.1 Build 1)  -->
  <defs>
    <style>
      .st0 {
        fill: none;
      }

      .st1 {
        fill: #4d3d41;
      }

      .st2 {
        fill: #fff;
      }
    </style>
  </defs>
  <rect class="st1" width="49" height="49" rx="3.4" ry="3.4"/>
  <g>
    <rect class="st2" x="18.4" y="23.4" width="12.2" height="2" rx="1" ry="1"/>
    <rect class="st2" x="18.4" y="27.5" width="8.2" height="2" rx="1" ry="1"/>
    <path class="st2" d="M24.5,14.3h0c3.9,0,7.3,2.8,8,6.6l.3,1.4,1.4.2c3.1.5,5.1,3.5,4.5,6.5-.5,2.7-2.8,4.6-5.5,4.6H15.8c-3.1,0-5.6-2.5-5.6-5.6s1.9-5,4.6-5.5l1.4-.2.3-1.4c.7-3.8,4.1-6.6,8-6.6M24.5,12.2c-4.9,0-9.1,3.5-10,8.3-4.2.8-6.9,4.7-6.2,8.9.7,3.6,3.8,6.3,7.5,6.3h17.4c4.2,0,7.6-3.4,7.6-7.7s-2.7-6.9-6.3-7.5c-.9-4.8-5.1-8.3-10-8.3h0Z"/>
  </g>
  <rect id="_Transparent_Rectangle_" class="st0" x="8.5" y="8.5" width="32" height="32"/>
</svg>