<?xml version="1.0" encoding="UTF-8"?>
<svg id="icon" xmlns="http://www.w3.org/2000/svg" version="1.1" viewBox="0 0 1200 628">
  <!-- Generator: Adobe Illustrator 30.2.1, SVG Export Plug-In . SVG Version: 2.1.1 Build 1)  -->
  <defs>
    <style>
      .st0 {
        fill: none;
      }

      .st1 {
        fill: #4d3d41;
      }

      .st2 {
        fill: #c8b7bc;
      }

      .st3 {
        fill: #4c1726;
      }

      .st4 {
        fill: #fff;
      }

      .st5 {
        fill: #383838;
      }
    </style>
  </defs>
  <rect class="st2" width="1200" height="628"/>
  <rect id="_Transparent_Rectangle_" class="st0" x="8.5" y="298" width="32" height="32"/>
  <g>
    <g>
      <rect class="st1" x="449.8" y="87.9" width="300.5" height="300.5" rx="20.9" ry="20.9"/>
      <g>
        <path class="st4" d="M568.7,231.4h62.6c3.4,0,6.1,2.7,6.1,6.1h0c0,3.4-2.7,6.1-6.1,6.1h-62.6c-3.4,0-6.1-2.7-6.1-6.1h0c0-3.4,2.7-6.1,6.1-6.1Z"/>
        <path class="st4" d="M568.7,256.6h38c3.4,0,6.1,2.7,6.1,6.1h0c0,3.4-2.7,6.1-6.1,6.1h-38c-3.4,0-6.1-2.7-6.1-6.1h0c0-3.4,2.7-6.1,6.1-6.1Z"/>
        <path class="st4" d="M600,175.6h0c23.9,0,44.8,17.2,49.1,40.5l1.8,8.6,8.6,1.2c19,3.1,31.3,21.5,27.6,39.9-3.1,16.6-17.2,28.2-33.7,28.2h-106.7c-19,0-34.3-15.3-34.3-34.3s11.7-30.7,28.2-33.7l8.6-1.2,1.8-8.6c4.3-23.3,25.1-40.5,49.1-40.5M600,162.7c-30,0-55.8,21.5-61.3,50.9-25.8,4.9-42.3,28.8-38,54.6,4.3,22.1,23.3,38.6,46,38.6h106.7c25.8,0,46.6-20.9,46.6-47.2s-16.6-42.3-38.6-46c-5.5-29.4-31.3-50.9-61.3-50.9h0Z"/>
      </g>
    </g>
    <g>
      <path class="st3" d="M284.2,460.4l-1.4,4.5,2.3.4v3.9h-11.1v-3.9l2.3-.3,10.3-28.3h6.7l10.3,28.3,2.3.3v3.9h-11.1v-3.9l2.3-.4-1.4-4.5h-11.4ZM290.3,444.5l-.3-1h-.1l-.3,1.1-3.8,11.1h8.4l-3.8-11.2Z"/>
      <path class="st3" d="M318.3,464.6l3.1.7v3.9h-12.8v-3.9l3.1-.7v-15l-3.5-.7v-3.9h9.5l.2,3v.5c1.3-2.7,3-4,5.4-4s.8,0,1.3.1c.5,0,.9.2,1.2.3l-.7,6-3.2-.2h-.3c-.8,0-1.4.2-1.9.5-.6.4-1.1.9-1.5,1.5v11.8Z"/>
      <path class="st3" d="M337.5,469.7c-2.2,0-4-.6-5.2-1.9-1.2-1.2-1.8-3.2-1.8-5.9v-12.3h-3.3v-4.6h3.3v-5.9h6.5v5.9h4.4v4.6h-4.4v12.3c0,.9.2,1.6.6,2,.4.4.9.6,1.6.6s.7,0,1.2,0c.4,0,.8-.1,1.1-.2l.6,4.7c-.7.2-1.4.4-2.2.5-.8.1-1.6.2-2.3.2Z"/>
      <path class="st3" d="M353.9,445v19.6l3.1.7v3.9h-12.8v-3.9l3.2-.7v-15l-3.5-.7v-3.9h10ZM347.1,439.9v-5.6h6.7v5.6h-6.7Z"/>
      <path class="st3" d="M370.6,469.7c-2.3,0-4.3-.5-6-1.6-1.7-1-3-2.5-3.9-4.3-.9-1.8-1.4-3.9-1.4-6.3v-.7c0-2.4.5-4.5,1.4-6.3.9-1.8,2.2-3.3,3.9-4.3,1.7-1.1,3.7-1.6,5.9-1.6s4,.3,5.6,1c1.6.7,2.8,1.5,3.8,2.4v6.9h-5l-.9-4.3c-.4-.4-.8-.6-1.4-.9-.6-.2-1.1-.3-1.7-.3-1.2,0-2.2.3-3,.9-1.6,1.2-2.3,3.4-2.3,6.5v.7c0,1.6.2,3,.6,4.1.4,1.1,1,1.9,1.7,2.4.7.5,1.5.8,2.4.8s2.1-.3,2.8-.9c.7-.6,1.2-1.5,1.4-2.6h5.6c-.2,1.8-.7,3.3-1.5,4.6-.8,1.3-1.8,2.2-3.2,2.9-1.4.7-3.1,1-5.2,1Z"/>
      <path class="st3" d="M392.7,434.4v30.3l3.2.7v3.9h-12.8v-3.9l3.2-.7v-25.7l-3.5-.7v-3.9h10Z"/>
      <path class="st3" d="M409.5,469.7c-2.3,0-4.3-.5-6.1-1.5-1.7-1-3.1-2.4-4-4.2-.9-1.8-1.4-3.8-1.4-6.1v-.9c0-2.4.4-4.5,1.3-6.4.9-1.9,2.2-3.3,3.8-4.4,1.6-1,3.5-1.6,5.7-1.6h0c2.2,0,4,.4,5.5,1.3,3,1.8,4.6,5,4.6,9.6v3.6h-14.3c0,1.2.4,2.1.8,3,.4.8,1,1.5,1.9,1.9.8.5,1.8.7,2.9.7s2.3-.2,3.3-.5c1-.3,2-.8,3-1.4l1.8,4c-1,.8-2.3,1.5-3.8,2-1.5.5-3.2.8-5.2.8ZM404.8,454.7h0c0,.1,8.1.1,8.1.1v-.6c0-1-.1-1.8-.4-2.5-.6-1.5-1.7-2.2-3.5-2.2s-1.6.2-2.2.7c-.6.5-1.1,1.1-1.4,1.9-.3.8-.6,1.7-.7,2.7Z"/>
      <path class="st3" d="M461.1,447.5h-.1l-.9,2.8-6.2,18.9h-5.9l-7.6-28.3-3.3-.3v-3.9h13.1v3.9l-3.5.5,3.8,15.8.7,2.9h.1l.8-2.9,6.4-20.3h4.8l6.7,20.8.8,2.6h.1l.7-2.6,4-16.4-3.7-.5v-3.9h12.8v3.9l-3.1.3-7.6,28.3h-5.9l-6.2-19-.8-2.7Z"/>
      <path class="st3" d="M495.7,469.7c-2.4,0-4.4-.5-6.1-1.6-1.7-1-3-2.5-3.9-4.3-.9-1.9-1.4-4-1.4-6.4v-.5c0-2.4.5-4.6,1.4-6.4.9-1.9,2.2-3.3,3.9-4.4,1.7-1,3.7-1.6,6.1-1.6s4.5.5,6.1,1.6c1.7,1,3,2.5,3.9,4.3.9,1.9,1.4,4,1.4,6.4v.5c0,2.4-.5,4.6-1.4,6.4-.9,1.8-2.2,3.3-3.9,4.3-1.7,1.1-3.7,1.6-6.1,1.6ZM495.7,464.7c1.1,0,2-.3,2.8-.9.7-.6,1.2-1.5,1.6-2.6.3-1.1.5-2.4.5-3.8v-.5c0-1.4-.2-2.7-.5-3.8-.3-1.1-.9-2-1.6-2.6-.7-.6-1.7-.9-2.8-.9s-2,.3-2.8.9c-.7.6-1.3,1.5-1.6,2.6-.3,1.1-.5,2.4-.5,3.8v.5c0,1.4.2,2.7.5,3.8.3,1.1.9,2,1.6,2.6.7.6,1.7.9,2.8.9Z"/>
      <path class="st3" d="M520.1,464.6l3.1.7v3.9h-12.8v-3.9l3.1-.7v-15l-3.5-.7v-3.9h9.5l.2,3v.5c1.3-2.7,3-4,5.4-4s.8,0,1.3.1c.5,0,.9.2,1.2.3l-.7,6-3.2-.2h-.3c-.8,0-1.4.2-1.9.5-.6.4-1.1.9-1.5,1.5v11.8Z"/>
      <path class="st3" d="M539.1,469.7c-1.9,0-3.6-.5-4.9-1.5-1.4-1-2.4-2.4-3.2-4.1-.7-1.8-1.1-3.9-1.1-6.2v-.5c0-2.5.4-4.8,1.1-6.7.7-1.9,1.8-3.4,3.2-4.5,1.4-1.1,3-1.6,4.9-1.6s2.5.3,3.5.8c1,.5,1.9,1.3,2.6,2.2v-8.7l-3.5-.7v-3.9h10v30.3l3.1.7v3.9h-8.8l-.5-3c-.8,1.1-1.7,2-2.7,2.5-1,.6-2.3.9-3.7.9ZM541,464.6c1.8,0,3.2-.8,4.1-2.3v-10.3c-.9-1.6-2.3-2.4-4.1-2.4s-2,.3-2.7,1c-.7.6-1.2,1.5-1.5,2.7-.3,1.2-.5,2.5-.5,4v.5c0,2.1.4,3.8,1.1,5,.7,1.2,1.9,1.8,3.6,1.8Z"/>
      <path class="st3" d="M587.8,469.7c-3.1,0-5.9-.7-8.2-2-2.3-1.3-4.1-3.2-5.4-5.6-1.3-2.4-1.9-5.3-1.9-8.6v-1.1c0-3.2.6-6,1.9-8.4,1.2-2.4,3-4.4,5.3-5.7,2.3-1.4,5-2.1,8.1-2.1s4.3.3,6.2.9c1.9.6,3.7,1.6,5.2,2.9v7.9h-4.8l-.7-4.9c-.5-.4-1.1-.7-1.6-.9-1.2-.5-2.5-.8-4.1-.8s-3.4.5-4.8,1.4c-2.7,1.9-4.1,5.1-4.1,9.8v1.1c0,2.2.4,4.2,1.1,5.9.7,1.7,1.8,3,3.2,3.9,1.4.9,3,1.4,4.9,1.4s1.9-.1,2.8-.3,1.8-.5,2.6-.8l.7-4.6h4.8v7.8c-1.3.8-2.8,1.5-4.7,2.1-1.9.6-4,.9-6.3.9Z"/>
      <path class="st3" d="M611.3,434.4v30.3l3.2.7v3.9h-12.8v-3.9l3.2-.7v-25.7l-3.5-.7v-3.9h10Z"/>
      <path class="st3" d="M628.1,469.7c-2.4,0-4.4-.5-6.1-1.6-1.7-1-3-2.5-3.9-4.3-.9-1.9-1.4-4-1.4-6.4v-.5c0-2.4.5-4.6,1.4-6.4.9-1.9,2.2-3.3,3.9-4.4,1.7-1,3.7-1.6,6.1-1.6s4.5.5,6.1,1.6c1.7,1,3,2.5,3.9,4.3.9,1.9,1.4,4,1.4,6.4v.5c0,2.4-.5,4.6-1.4,6.4-.9,1.8-2.2,3.3-3.9,4.3-1.7,1.1-3.7,1.6-6.1,1.6ZM628.1,464.7c1.1,0,2-.3,2.8-.9.7-.6,1.2-1.5,1.6-2.6.3-1.1.5-2.4.5-3.8v-.5c0-1.4-.2-2.7-.5-3.8-.3-1.1-.9-2-1.6-2.6-.7-.6-1.7-.9-2.8-.9s-2,.3-2.8.9c-.7.6-1.3,1.5-1.6,2.6-.3,1.1-.5,2.4-.5,3.8v.5c0,1.4.2,2.7.5,3.8.3,1.1.9,2,1.6,2.6.7.6,1.7.9,2.8.9Z"/>
      <path class="st3" d="M652.7,469.7c-2.5,0-4.5-.8-6-2.4s-2.2-4.1-2.2-7.5v-10.1l-2.7-.7v-3.9h9.2v14.7c0,1.7.3,3,.9,3.7.6.8,1.5,1.1,2.7,1.1,1.9,0,3.4-.7,4.4-2.2v-12.8l-2.9-.7v-3.9h9.4v19.6l2.9.7v3.9h-8.6l-.4-3.1c-.8,1.1-1.7,2-2.9,2.6-1.1.6-2.4.9-3.9.9Z"/>
      <path class="st3" d="M680.2,469.7c-1.9,0-3.6-.5-4.9-1.5-1.4-1-2.4-2.4-3.2-4.1-.7-1.8-1.1-3.9-1.1-6.2v-.5c0-2.5.4-4.8,1.1-6.7.7-1.9,1.8-3.4,3.2-4.5,1.4-1.1,3-1.6,4.9-1.6s2.5.3,3.5.8c1,.5,1.9,1.3,2.6,2.2v-8.7l-3.5-.7v-3.9h10v30.3l3.1.7v3.9h-8.8l-.5-3c-.8,1.1-1.7,2-2.7,2.5-1,.6-2.3.9-3.7.9ZM682.1,464.6c1.8,0,3.2-.8,4.1-2.3v-10.3c-.9-1.6-2.3-2.4-4.1-2.4s-2,.3-2.7,1c-.7.6-1.2,1.5-1.5,2.7-.3,1.2-.5,2.5-.5,4v.5c0,2.1.4,3.8,1.1,5,.7,1.2,1.9,1.8,3.6,1.8Z"/>
      <path class="st3" d="M728.6,469.7c-3.2,0-6-.7-8.3-2s-4-3.2-5.2-5.6c-1.2-2.4-1.8-5.1-1.8-8.3v-1.1c0-3.2.6-6.1,1.8-8.6,1.2-2.5,2.9-4.4,5.1-5.8,2.2-1.4,4.8-2.1,7.9-2.1s4.5.3,6.6,1,3.8,1.6,5.4,2.9v7.2h-4.8l-.9-4.4c-.6-.5-1.4-.9-2.3-1.2s-2.1-.5-3.4-.5c-1.8,0-3.4.5-4.7,1.4-1.3,1-2.3,2.3-3,4-.7,1.7-1.1,3.7-1.1,6v1.2c0,2.2.3,4.1,1,5.7.7,1.6,1.7,2.9,3.1,3.8,1.3.9,3,1.4,4.9,1.4s2.2-.1,3.2-.3,1.8-.5,2.4-.8v-5.5l-4.6-.4v-4.6h11.2v13.2c-1.4,1-3.2,1.9-5.2,2.5-2,.6-4.4.9-7.1.9Z"/>
      <path class="st3" d="M755.9,469.7c-2.3,0-4.3-.5-6.1-1.5-1.7-1-3.1-2.4-4-4.2-.9-1.8-1.4-3.8-1.4-6.1v-.9c0-2.4.4-4.5,1.3-6.4.9-1.9,2.2-3.3,3.8-4.4,1.6-1,3.5-1.6,5.7-1.6h0c2.2,0,4,.4,5.5,1.3,3,1.8,4.6,5,4.6,9.6v3.6h-14.3c0,1.2.4,2.1.8,3,.4.8,1,1.5,1.9,1.9.8.5,1.8.7,2.9.7s2.3-.2,3.3-.5c1-.3,2-.8,3-1.4l1.8,4c-1,.8-2.3,1.5-3.8,2-1.5.5-3.2.8-5.2.8ZM751.2,454.7h0c0,.1,8.1.1,8.1.1v-.6c0-1-.1-1.8-.4-2.5-.6-1.5-1.7-2.2-3.5-2.2s-1.6.2-2.2.7c-.6.5-1.1,1.1-1.4,1.9-.3.8-.6,1.7-.7,2.7Z"/>
      <path class="st3" d="M777.8,464.6l2.6.7v3.9h-12.3v-3.9l3.1-.7v-15l-3.5-.7v-3.9h9.5l.3,3.5c.8-1.2,1.8-2.2,3-2.9,1.2-.7,2.5-1,4.1-1,2.4,0,4.3.8,5.6,2.3,1.4,1.5,2,3.9,2,7.2v10.5l3.1.7v3.9h-12.5v-3.9l2.8-.7v-10.5c0-1.6-.3-2.8-1-3.5-.6-.7-1.6-1-2.9-1-1.8,0-3.2.8-4.2,2.3v12.7Z"/>
      <path class="st3" d="M809.2,469.7c-2.3,0-4.3-.5-6.1-1.5-1.7-1-3.1-2.4-4-4.2-.9-1.8-1.4-3.8-1.4-6.1v-.9c0-2.4.4-4.5,1.3-6.4.9-1.9,2.2-3.3,3.8-4.4,1.6-1,3.5-1.6,5.7-1.6h0c2.2,0,4,.4,5.5,1.3,3,1.8,4.6,5,4.6,9.6v3.6h-14.3c0,1.2.4,2.1.8,3,.4.8,1,1.5,1.9,1.9.8.5,1.8.7,2.9.7s2.3-.2,3.3-.5c1-.3,2-.8,3-1.4l1.8,4c-1,.8-2.3,1.5-3.8,2-1.5.5-3.2.8-5.2.8ZM804.5,454.7h0c0,.1,8.1.1,8.1.1v-.6c0-1-.1-1.8-.4-2.5-.6-1.5-1.7-2.2-3.5-2.2s-1.6.2-2.2.7c-.6.5-1.1,1.1-1.4,1.9-.3.8-.6,1.7-.7,2.7Z"/>
      <path class="st3" d="M831.9,464.6l3.1.7v3.9h-12.8v-3.9l3.1-.7v-15l-3.5-.7v-3.9h9.5l.2,3v.5c1.3-2.7,3-4,5.4-4s.8,0,1.3.1c.5,0,.9.2,1.2.3l-.7,6-3.2-.2h-.3c-.8,0-1.4.2-1.9.5-.6.4-1.1.9-1.5,1.5v11.8Z"/>
      <path class="st3" d="M848.7,469.7c-2.4,0-4.3-.6-5.7-1.9-1.4-1.3-2.1-3-2.1-5.3s.4-2.9,1.3-4c.8-1.1,2.1-2,3.7-2.7,1.6-.7,3.6-1,6-1h3.2v-1.8c0-1.2-.3-2.1-1-2.8-.7-.7-1.7-1.1-3.1-1.1s-1.3,0-1.9.3c-.6.2-1.1.4-1.5.7l-.5,3.2h-4.7v-6.3c1.2-.7,2.5-1.3,4-1.7s3.1-.7,4.9-.7c3.2,0,5.7.7,7.5,2.2,1.8,1.5,2.7,3.6,2.7,6.3v10c0,.3,0,.7,0,1,0,.3,0,.6,0,.9l2.5.4v3.9h-8.1c-.2-.4-.3-.9-.5-1.3s-.3-1-.4-1.4c-.8,1-1.7,1.8-2.7,2.4-1.1.6-2.3.9-3.7.9ZM850.4,464.9c.9,0,1.8-.2,2.6-.6.8-.4,1.5-.9,1.9-1.6v-3.8h-3.2c-1.4,0-2.5.3-3.3,1-.7.7-1.1,1.4-1.1,2.4s.3,1.5.8,2c.5.5,1.3.7,2.3.7Z"/>
      <path class="st3" d="M875.9,469.7c-2.2,0-4-.6-5.2-1.9-1.2-1.2-1.8-3.2-1.8-5.9v-12.3h-3.3v-4.6h3.3v-5.9h6.5v5.9h4.4v4.6h-4.4v12.3c0,.9.2,1.6.6,2,.4.4.9.6,1.6.6s.7,0,1.2,0c.4,0,.8-.1,1.1-.2l.6,4.7c-.7.2-1.4.4-2.2.5-.8.1-1.6.2-2.3.2Z"/>
      <path class="st3" d="M894.3,469.7c-2.4,0-4.4-.5-6.1-1.6-1.7-1-3-2.5-3.9-4.3-.9-1.9-1.4-4-1.4-6.4v-.5c0-2.4.5-4.6,1.4-6.4.9-1.9,2.2-3.3,3.9-4.4,1.7-1,3.7-1.6,6.1-1.6s4.5.5,6.1,1.6c1.7,1,3,2.5,3.9,4.3.9,1.9,1.4,4,1.4,6.4v.5c0,2.4-.5,4.6-1.4,6.4-.9,1.8-2.2,3.3-3.9,4.3-1.7,1.1-3.7,1.6-6.1,1.6ZM894.3,464.7c1.1,0,2-.3,2.8-.9.7-.6,1.2-1.5,1.6-2.6.3-1.1.5-2.4.5-3.8v-.5c0-1.4-.2-2.7-.5-3.8-.3-1.1-.9-2-1.6-2.6-.7-.6-1.7-.9-2.8-.9s-2,.3-2.8.9c-.7.6-1.3,1.5-1.6,2.6-.3,1.1-.5,2.4-.5,3.8v.5c0,1.4.2,2.7.5,3.8.3,1.1.9,2,1.6,2.6.7.6,1.7.9,2.8.9Z"/>
      <path class="st3" d="M918.8,464.6l3.1.7v3.9h-12.8v-3.9l3.1-.7v-15l-3.5-.7v-3.9h9.5l.2,3v.5c1.3-2.7,3-4,5.4-4s.8,0,1.3.1c.5,0,.9.2,1.2.3l-.7,6-3.2-.2h-.3c-.8,0-1.4.2-1.9.5-.6.4-1.1.9-1.5,1.5v11.8Z"/>
    </g>
    <g>
      <path class="st5" d="M346.5,507.2h2.5l4.9,17.1h.2l4.9-17.1h2.5l4.9,17h.2l4.9-17h2.5l-6.3,20.7h-2.5l-4.9-17h-.3l-4.9,17h-2.5l-6.3-20.7Z"/>
      <path class="st5" d="M377,517.7c0-6.4,3.8-10.7,9.1-10.7s9.1,4.4,9.1,10.7-3.8,10.7-9.1,10.7-9.1-4.4-9.1-10.7ZM392.8,517.7c0-4.6-2.4-8.6-6.7-8.6s-6.7,3.9-6.7,8.6,2.4,8.5,6.7,8.5,6.7-3.9,6.7-8.5Z"/>
      <path class="st5" d="M400.5,507.2h2.3v3.2h.2c.8-2.1,3.1-3.5,5.7-3.5s.9,0,1.3,0v2.4c-.2,0-.8-.1-1.4-.1-3.2,0-5.6,2.2-5.6,5.3v13.4h-2.4v-20.7Z"/>
      <path class="st5" d="M412.4,517.6c0-6.4,3.5-10.7,8.6-10.7s5.5,2.4,6.3,4.2h.2v-10.9h2.4v27.6h-2.3v-3.8h-.3c-.8,1.9-2.6,4.3-6.4,4.3s-8.5-4.3-8.5-10.7ZM427.5,517.6c0-5-2.3-8.5-6.3-8.5s-6.4,3.7-6.4,8.5,2.3,8.6,6.4,8.6,6.3-3.6,6.3-8.6Z"/>
      <path class="st5" d="M447.9,517.2h-11.5v-2.3h11.5v2.3Z"/>
      <path class="st5" d="M452.9,517.7c0-6.2,3.7-10.7,9.1-10.7s7.4,2.6,7.9,6.4h-2.4c-.5-2.3-2.5-4.2-5.5-4.2s-6.7,3.5-6.7,8.5,2.7,8.6,6.7,8.6,4.9-1.6,5.5-4.3h2.4c-.6,3.8-3.6,6.5-7.9,6.5s-9.2-4.5-9.2-10.7Z"/>
      <path class="st5" d="M477.5,527.9h-2.4v-27.6h2.4v27.6Z"/>
      <path class="st5" d="M482.8,517.7c0-6.4,3.8-10.7,9.1-10.7s9.1,4.4,9.1,10.7-3.8,10.7-9.1,10.7-9.1-4.4-9.1-10.7ZM498.6,517.7c0-4.6-2.4-8.6-6.7-8.6s-6.7,3.9-6.7,8.6,2.4,8.5,6.7,8.5,6.7-3.9,6.7-8.5Z"/>
      <path class="st5" d="M519.5,507.2h2.4v20.7h-2.4v-3.4h-.2c-1,2.1-3.1,3.7-6.2,3.7s-6.8-2.7-6.8-7.6v-13.4h2.4v13.3c0,3.2,2.1,5.4,5.1,5.4s5.7-2.1,5.7-5.9v-12.8Z"/>
      <path class="st5" d="M527.1,517.6c0-6.4,3.5-10.7,8.6-10.7s5.5,2.4,6.3,4.2h.2v-10.9h2.4v27.6h-2.3v-3.8h-.3c-.8,1.9-2.6,4.3-6.4,4.3s-8.5-4.3-8.5-10.7ZM542.3,517.6c0-5-2.3-8.5-6.3-8.5s-6.4,3.7-6.4,8.5,2.3,8.6,6.4,8.6,6.3-3.6,6.3-8.6Z"/>
      <path class="st5" d="M551.5,526.2c0-1.1.9-1.9,1.9-1.9s1.9.9,1.9,1.9-.9,1.9-1.9,1.9-1.9-.9-1.9-1.9Z"/>
      <path class="st5" d="M562.2,500.3h2.4v10.9h.2c.8-1.9,2.5-4.2,6.3-4.2s8.6,4.3,8.6,10.7-3.4,10.7-8.5,10.7-5.5-2.4-6.4-4.3h-.3v3.8h-2.3v-27.6ZM570.9,526.2c4.1,0,6.4-3.8,6.4-8.6s-2.3-8.5-6.4-8.5-6.3,3.5-6.3,8.5,2.3,8.6,6.3,8.6Z"/>
      <path class="st5" d="M584,522.1c0-4.1,3.3-5.4,8-6,3.5-.4,5.4-.5,5.4-2v-.5c0-2.8-1.7-4.6-4.9-4.6s-4.9,1.5-5.6,3.3l-2.3-.8c1.4-3.4,4.7-4.6,7.8-4.6s7.4,1.4,7.4,6.9v14.1h-2.4v-3.3h-.1c-.9,1.8-3,3.7-6.4,3.7s-6.8-2.3-6.8-6.3ZM597.4,520v-3c-.7.7-3.7,1.1-5.4,1.3-3.5.4-5.6,1.5-5.6,4s2,4,4.7,4,6.2-2.8,6.2-6.2Z"/>
      <path class="st5" d="M614.3,509.3h-4.4v13.2c0,2.6,1.5,3.4,3.1,3.4s1.1,0,1.4-.2l.5,2.2c-.5.2-1.1.4-2.1.4-2.7,0-5.3-1.8-5.3-5.2v-13.8h-3.1v-2.1h3.1v-5h2.4v5h4.4v2.1Z"/>
      <path class="st5" d="M618.5,517.7c0-6.2,3.7-10.7,9.1-10.7s7.4,2.6,7.9,6.4h-2.4c-.5-2.3-2.5-4.2-5.5-4.2s-6.7,3.5-6.7,8.5,2.7,8.6,6.7,8.6,4.9-1.6,5.5-4.3h2.4c-.6,3.8-3.6,6.5-7.9,6.5s-9.2-4.5-9.2-10.7Z"/>
      <path class="st5" d="M639.6,517.7c0-6.4,3.8-10.7,9.1-10.7s9.1,4.4,9.1,10.7-3.8,10.7-9.1,10.7-9.1-4.4-9.1-10.7ZM655.4,517.7c0-4.6-2.4-8.6-6.7-8.6s-6.7,3.9-6.7,8.6,2.4,8.5,6.7,8.5,6.7-3.9,6.7-8.5Z"/>
      <path class="st5" d="M663.1,507.2h2.3v3.2h.2c.8-2.1,2.8-3.5,5.6-3.5s4.7,1.4,5.6,3.8h.2c.9-2.3,3.1-3.8,6.1-3.8s6.2,2.5,6.2,7.1v13.9h-2.4v-13.9c0-3.3-1.8-4.9-4.6-4.9s-4.9,2.2-4.9,5.2v13.6h-2.5v-14.1c0-2.8-1.6-4.7-4.5-4.7s-5,2.3-5,5.5v13.3h-2.4v-20.7Z"/>
      <path class="st5" d="M695.7,507.2h2.3v4h.3c.8-1.9,2.5-4.2,6.3-4.2s8.6,4.3,8.6,10.7-3.5,10.7-8.5,10.7-5.5-2.4-6.4-4.3h-.2v11.6h-2.4v-28.5ZM704.4,526.2c4.1,0,6.4-3.8,6.4-8.6s-2.2-8.5-6.4-8.5-6.3,3.5-6.3,8.5,2.3,8.6,6.3,8.6Z"/>
      <path class="st5" d="M731.7,507.2h2.4v20.7h-2.4v-3.4h-.2c-1,2.1-3.1,3.7-6.2,3.7s-6.8-2.7-6.8-7.6v-13.4h2.4v13.3c0,3.2,2.1,5.4,5.1,5.4s5.7-2.1,5.7-5.9v-12.8Z"/>
      <path class="st5" d="M748.6,509.3h-4.4v13.2c0,2.6,1.5,3.4,3.1,3.4s1.1,0,1.4-.2l.5,2.2c-.5.2-1.1.4-2.1.4-2.7,0-5.3-1.8-5.3-5.2v-13.8h-3.1v-2.1h3.1v-5h2.4v5h4.4v2.1Z"/>
      <path class="st5" d="M752.8,517.7c0-6.3,3.7-10.8,9.1-10.8s8.8,3.3,8.8,10.2v1.2h-15.4c.1,4.8,2.8,7.9,7,7.9s4.8-1.5,5.6-3.4l2.3.7c-.9,2.6-3.7,4.9-7.9,4.9s-9.4-4.4-9.4-10.7ZM768.2,516.2c0-4-2.6-7.1-6.3-7.1s-6.4,3.2-6.7,7.1h13Z"/>
      <path class="st5" d="M775.9,507.2h2.3v3.2h.2c.8-2.1,3.1-3.5,5.7-3.5s.9,0,1.3,0v2.4c-.2,0-.8-.1-1.4-.1-3.2,0-5.6,2.2-5.6,5.3v13.4h-2.4v-20.7Z"/>
      <path class="st5" d="M787.1,526.2c0-1.1.9-1.9,1.9-1.9s1.9.9,1.9,1.9-.9,1.9-1.9,1.9-1.9-.9-1.9-1.9Z"/>
      <path class="st5" d="M804.1,516l5.3-8.8h2.8l-6.7,10.4,6.7,10.4h-2.8l-5.3-8.6-5.3,8.6h-2.8l6.6-10.4-6.6-10.4h2.8l5.3,8.8Z"/>
      <path class="st5" d="M816.6,535.3l.6-2.1c2.4.8,4.1.2,5.2-2.9l.8-2.1-7.6-20.9h2.6l6.2,17.5h.2l6.2-17.5h2.6l-8.8,24c-1.1,3-3,4.5-5.6,4.5s-1.8-.2-2.3-.4Z"/>
      <path class="st5" d="M837.4,526l12-16.4v-.2h-11.5v-2.3h14.6v2l-11.8,16.3v.2h12.2v2.3h-15.5v-1.9Z"/>
    </g>
  </g>
</svg>